<?xml version="1.0" encoding="utf-8"?>
<svg id="master-artboard" viewBox="0 0 786.3937377929688 146.3306427001953" version="1.1" xmlns="http://www.w3.org/2000/svg" x="0px" y="0px" style="enable-background:new 0 0 1400 980;" width="786.3937377929688px" height="146.3306427001953px" xmlns:xlink="http://www.w3.org/1999/xlink"><rect id="ee-background" x="0" y="0" width="786.3937377929688" height="146.3306427001953" style="fill: white; fill-opacity: 0; pointer-events: none;"/><g transform="matrix(1.2760417461395264, 0, 0, 1.2760417461395264, -253.71133422851562, -414.4252014160156)"><metadata id="metadata1779">
    
  </metadata><linearGradient spreadMethod="pad" y2="30%" x2="-10%" y1="120%" x1="30%" id="3d_gradient2-logo-cbbe76d4-4728-45c1-91b1-d520ba8031d3">
    <stop id="stop1754" stop-opacity="1" stop-color="#ffffff" offset="0%"/>
    <stop id="stop1756" stop-opacity="1" stop-color="#000000" offset="100%"/>
  </linearGradient><linearGradient gradientTransform="rotate(-30)" spreadMethod="pad" y2="30%" x2="-10%" y1="120%" x1="30%" id="3d_gradient3-logo-cbbe76d4-4728-45c1-91b1-d520ba8031d3">
    <stop id="stop1759" stop-opacity="1" stop-color="#ffffff" offset="0%"/>
    <stop id="stop1761" stop-opacity="1" stop-color="#cccccc" offset="50%"/>
    <stop id="stop1763" stop-opacity="1" stop-color="#000000" offset="100%"/>
  </linearGradient><g id="logo-group">
    <image id="container" x="272" y="144" width="480" height="480" style="display: none;" transform="translate(0 0)" xlink:href=""/>
    <g id="logo-center" transform="translate(0 0)">
      <image id="icon_container" x="0" y="0" style="display: none;" xlink:href=""/>
      <g id="slogan" style="font-style:normal;font-weight:400;font-size:32px;line-height:1;font-family:Karla;font-variant-ligatures:none;text-align:center;text-anchor:middle" transform="translate(0 0)">
        <path id="path1781" style="font-style:normal;font-weight:400;font-size:32px;line-height:1;font-family:Karla;font-variant-ligatures:none;text-align:center;text-anchor:middle" d="m 434.1815,-20.128 h 3.072 L 444.0055,0 h -2.624 l -1.728,-5.12 h -8 L 429.9255,0 h -2.656 z m -1.856,13.024 h 6.688 l -3.328,-9.92 z" stroke-width="0" stroke-linejoin="miter" stroke-miterlimit="2" fill="#42525e" stroke="#42525e" transform="translate(0 355.85723825) translate(414.6284374999999 55.384) scale(0.75) translate(-427.2695 20.128)"/>
        <path id="path1783" style="font-style:normal;font-weight:400;font-size:32px;line-height:1;font-family:Karla;font-variant-ligatures:none;text-align:center;text-anchor:middle" d="m 458.4445,-3.04 q -1.568,3.328 -5.088,3.328 -2.592,0 -4.192,-1.44 -1.568,-1.44 -1.568,-4.448 v -9.728 h 2.528 v 9.536 q 0,3.872 3.584,3.872 2.08,0 3.36,-1.6 1.312,-1.6 1.376,-4.096 v -7.712 h 2.528 V 0 h -2.528 z" stroke-width="0" stroke-linejoin="miter" stroke-miterlimit="2" fill="#42525e" stroke="#42525e" transform="translate(0 355.85723825) translate(437.37368749999996 58.98400000000001) scale(0.75) translate(-447.5965 15.328)"/>
        <path id="path1785" style="font-style:normal;font-weight:400;font-size:32px;line-height:1;font-family:Karla;font-variant-ligatures:none;text-align:center;text-anchor:middle" d="m 475.4195,-0.448 q -2.752,1.28 -5.024,0.544 -1.632,-0.512 -2.304,-2.144 -0.352,-0.8 -0.352,-1.92 v -9.408 h -2.464 v -1.92 h 2.464 v -4.256 h 2.496 v 4.256 h 4.8 v 1.92 h -4.8 V -4 q 0,2.336 2.176,2.336 1.184,0 2.656,-0.576 z" stroke-width="0" stroke-linejoin="miter" stroke-miterlimit="2" fill="#42525e" stroke="#42525e" transform="translate(0 355.85723825) translate(458.13293749999997 55.816) scale(0.75) translate(-465.2755 19.552)"/>
        <path id="path1787" style="font-style:normal;font-weight:400;font-size:32px;line-height:1;font-family:Karla;font-variant-ligatures:none;text-align:center;text-anchor:middle" d="m 484.986,-15.68 q 3.2,0 5.152,2.08 1.984,2.08 1.984,5.952 0,3.84 -1.984,5.92 -1.952,2.08 -5.152,2.08 -3.2,0 -5.184,-2.08 -1.952,-2.08 -1.952,-5.92 0,-3.872 1.952,-5.952 1.984,-2.08 5.184,-2.08 z m 4.576,8.032 q 0,-2.752 -1.152,-4.288 -1.152,-1.568 -3.392,-1.568 -2.208,0 -3.392,1.568 -1.184,1.536 -1.184,4.288 0,2.72 1.12,4.288 1.12,1.536 3.328,1.536 2.24,0 3.456,-1.536 1.216,-1.568 1.216,-4.288 z" stroke-width="0" stroke-linejoin="miter" stroke-miterlimit="2" fill="#42525e" stroke="#42525e" transform="translate(0 355.85723825) translate(475.0638125 58.72) scale(0.75) translate(-477.85 15.68)"/>
        <path id="path1789" style="font-style:normal;font-weight:400;font-size:32px;line-height:1;font-family:Karla;font-variant-ligatures:none;text-align:center;text-anchor:middle" d="m 511.583,-20.48 q 3.232,0 5.184,1.632 1.984,1.6 2.72,4.192 l -2.72,0.544 q -0.64,-1.888 -2.016,-2.976 -1.344,-1.12 -3.168,-1.12 -2.528,0 -4.192,2.112 -1.664,2.112 -1.664,5.888 0,3.744 1.472,6.016 1.504,2.272 4.384,2.272 2.4,0 3.776,-1.248 1.408,-1.28 1.408,-3.36 h 2.72 q 0,3.168 -2.176,5.024 -2.144,1.856 -5.92,1.856 -3.744,0 -6.08,-2.88 -2.304,-2.88 -2.304,-7.712 0,-4.832 2.4,-7.52 2.4,-2.72 6.176,-2.72 z" stroke-width="0" stroke-linejoin="miter" stroke-miterlimit="2" fill="#42525e" stroke="#42525e" transform="translate(0 355.85723825) translate(501.4315625 55.120000000000005) scale(0.75) translate(-503.007 20.48)"/>
        <path id="path1791" style="font-style:normal;font-weight:400;font-size:32px;line-height:1;font-family:Karla;font-variant-ligatures:none;text-align:center;text-anchor:middle" d="m 529.512,-1.696 q 3.168,0 3.616,-2.784 h 2.592 q -0.352,2.304 -2.048,3.584 -1.664,1.248 -4.16,1.248 -3.072,0 -4.992,-2.176 -1.92,-2.208 -1.92,-5.856 0,-3.648 1.92,-5.824 1.952,-2.176 5.152,-2.176 3.232,0 4.8,2.496 1.6,2.496 1.12,6.08 h -10.464 q 0,2.368 1.152,3.904 1.152,1.504 3.232,1.504 z m 1.856,-11.584 q -0.736,-0.384 -1.792,-0.384 -1.952,0 -3.104,1.344 -1.12,1.312 -1.312,3.296 h 8.16 q 0,-3.2 -1.952,-4.256 z" stroke-width="0" stroke-linejoin="miter" stroke-miterlimit="2" fill="#42525e" stroke="#42525e" transform="translate(0 355.85723825) translate(523.6263125 58.72) scale(0.75) translate(-522.6 15.68)"/>
        <path id="path1793" style="font-style:normal;font-weight:400;font-size:32px;line-height:1;font-family:Karla;font-variant-ligatures:none;text-align:center;text-anchor:middle" d="m 543.164,-12.352 q 1.504,-3.328 5.152,-3.328 2.72,0 4.224,1.792 1.536,1.792 1.536,4.896 V 0 h -2.496 v -8.992 q 0,-2.208 -1.056,-3.328 -1.024,-1.12 -2.944,-1.12 -1.92,0 -3.104,1.568 -1.184,1.568 -1.248,4.352 V 0 H 540.7 v -15.296 h 2.176 z" stroke-width="0" stroke-linejoin="miter" stroke-miterlimit="2" fill="#42525e" stroke="#42525e" transform="translate(0 355.85723825) translate(544.7013125000001 58.72) scale(0.75) translate(-540.7 15.68)"/>
        <path id="path1795" style="font-style:normal;font-weight:400;font-size:32px;line-height:1;font-family:Karla;font-variant-ligatures:none;text-align:center;text-anchor:middle" d="m 568.0445,-0.448 q -2.752,1.28 -5.024,0.544 -1.632,-0.512 -2.304,-2.144 -0.352,-0.8 -0.352,-1.92 v -9.408 h -2.464 v -1.92 h 2.464 v -4.256 h 2.496 v 4.256 h 4.8 v 1.92 h -4.8 V -4 q 0,2.336 2.176,2.336 1.184,0 2.656,-0.576 z" stroke-width="0" stroke-linejoin="miter" stroke-miterlimit="2" fill="#42525e" stroke="#42525e" transform="translate(0 355.85723825) translate(565.1016875 55.816) scale(0.75) translate(-557.9005 19.552)"/>
        <path id="path1797" style="font-style:normal;font-weight:400;font-size:32px;line-height:1;font-family:Karla;font-variant-ligatures:none;text-align:center;text-anchor:middle" d="m 577.387,-1.696 q 3.168,0 3.616,-2.784 h 2.592 q -0.352,2.304 -2.048,3.584 -1.664,1.248 -4.16,1.248 -3.072,0 -4.992,-2.176 -1.92,-2.208 -1.92,-5.856 0,-3.648 1.92,-5.824 1.952,-2.176 5.152,-2.176 3.232,0 4.8,2.496 1.6,2.496 1.12,6.08 h -10.464 q 0,2.368 1.152,3.904 1.152,1.504 3.232,1.504 z m 1.856,-11.584 q -0.736,-0.384 -1.792,-0.384 -1.952,0 -3.104,1.344 -1.12,1.312 -1.312,3.296 h 8.16 q 0,-3.2 -1.952,-4.256 z" stroke-width="0" stroke-linejoin="miter" stroke-miterlimit="2" fill="#42525e" stroke="#42525e" transform="translate(0 355.85723825) translate(582.0325625 58.72) scale(0.75) translate(-570.475 15.68)"/>
        <path id="path1799" style="font-style:normal;font-weight:400;font-size:32px;line-height:1;font-family:Karla;font-variant-ligatures:none;text-align:center;text-anchor:middle" d="m 594.847,-13.152 q -3.616,0 -3.744,5.696 V 0 h -2.528 v -15.328 h 2.528 v 2.944 q 1.152,-3.2 4.064,-3.2 0.928,0 1.76,0.288 l -0.128,2.464 q -0.96,-0.32 -1.952,-0.32 z" stroke-width="0" stroke-linejoin="miter" stroke-miterlimit="2" fill="#42525e" stroke="#42525e" transform="translate(0 355.85723825) translate(603.1075625000001 58.792) scale(0.75) translate(-588.575 15.584)"/>
      </g>
      <g id="title" style="font-style:normal;font-weight:500;font-size:72px;line-height:1;font-family:'Raleway Medium Alt1';font-variant-ligatures:none;text-align:center;text-anchor:middle" transform="translate(0 0)">
        <path id="path1802" style="font-style:normal;font-weight:500;font-size:72px;line-height:1;font-family:'Raleway Medium Alt1';font-variant-ligatures:none;text-align:center;text-anchor:middle" d="M 131.33094,-51.12 V 0 h 6.48 v -39.528 l 11.448,20.448 3.456,-5.904 -14.544,-26.136 z m 43.92,0 -18.576,33.192 -3.384,5.904 1.584,2.808 h 3.672 l 16.992,-30.312 V 0 h 6.48 v -51.12 z" stroke-width="0" stroke-linejoin="miter" stroke-miterlimit="2" fill="#42525e" stroke="#42525e" transform="translate(0 274.90123825) translate(224.992955 77.612) scale(0.75) translate(-131.33094 51.12)"/>
        <path id="path1804" style="font-style:normal;font-weight:500;font-size:72px;line-height:1;font-family:'Raleway Medium Alt1';font-variant-ligatures:none;text-align:center;text-anchor:middle" d="m 200.67031,-45.36 h 27.576 v -5.76 h -34.056 v 15.84 h 6.48 z m -6.48,39.6 V 0 h 34.704 v -5.76 z m 6.48,-17.64 h 23.976 v -5.4 h -30.456 v 16.56 h 6.48 z" stroke-width="0" stroke-linejoin="miter" stroke-miterlimit="2" fill="#435661" stroke="#435661" transform="translate(0 274.90123825) translate(272.13748250000003 77.612) scale(0.75) translate(-194.19031 51.12)"/>
        <path id="path1806" style="font-style:normal;font-weight:500;font-size:72px;line-height:1;font-family:'Raleway Medium Alt1';font-variant-ligatures:none;text-align:center;text-anchor:middle" d="m 241.11969,-32.76 c 0.72,-2.376 1.872,-4.536 3.384,-6.408 1.44,-1.872 3.312,-3.456 5.472,-4.608 2.16,-1.152 4.68,-1.8 7.56,-1.8 1.296,0 2.592,0.144 3.96,0.432 1.296,0.288 2.592,0.792 3.888,1.44 1.224,0.72 2.448,1.584 3.528,2.664 1.08,1.152 2.016,2.52 2.808,4.104 l 5.112,-3.312 c -1.584,-3.312 -4.032,-5.976 -7.272,-8.064 -3.312,-2.016 -7.2,-3.096 -11.736,-3.096 -3.888,0 -7.272,0.792 -10.296,2.232 -3.096,1.512 -5.616,3.456 -7.704,5.904 -2.088,2.448 -3.672,5.184 -4.752,8.208 -0.792,2.16 -1.224,4.32 -1.44,6.408 h 6.552 c 0.216,-1.368 0.504,-2.736 0.936,-4.104 z m 31.248,18.36 c -0.72,1.584 -1.656,2.952 -2.808,4.104 -1.152,1.152 -2.376,2.088 -3.6,2.808 -1.368,0.72 -2.664,1.296 -4.104,1.584 -1.44,0.36 -2.808,0.504 -4.104,0.504 -2.592,0 -4.896,-0.504 -7.056,-1.656 -2.16,-1.08 -4.032,-2.592 -5.616,-4.464 -1.656,-1.872 -2.88,-3.96 -3.744,-6.408 -0.576,-1.512 -0.936,-3.024 -1.152,-4.68 h -6.552 c 0.288,2.16 0.792,4.248 1.584,6.336 1.152,3.168 2.808,5.976 4.968,8.424 2.16,2.448 4.68,4.464 7.632,5.976 2.88,1.584 6.12,2.304 9.648,2.304 1.944,0 3.96,-0.216 6.048,-0.792 2.016,-0.504 3.96,-1.224 5.832,-2.304 1.872,-0.936 3.528,-2.232 4.968,-3.672 1.44,-1.44 2.592,-3.168 3.456,-5.112 z" stroke-width="0" stroke-linejoin="miter" stroke-miterlimit="2" fill="#455a65" stroke="#455a65" transform="translate(0 274.90123825) translate(301.7185175 77.396) scale(0.75) translate(-233.63169 51.408)"/>
        <path id="path1808" style="font-style:normal;font-weight:500;font-size:72px;line-height:1;font-family:'Raleway Medium Alt1';font-variant-ligatures:none;text-align:center;text-anchor:middle" d="M 300.72669,-51.12 279.77469,0 h 6.912 l 5.976,-14.976 h 21.456 L 320.16669,0 h 6.912 l -20.88,-51.12 z m 11.952,31.104 h -18.72 l 9.504,-23.616 z m -18.792,-39.456 3.456,1.728 6.12,-4.536 6.12,4.536 3.456,-1.728 -7.272,-6.48 h -4.608 z" stroke-width="0" stroke-linejoin="miter" stroke-miterlimit="2" fill="#465e68" stroke="#465e68" transform="translate(0 274.90123825) translate(336.32576750000004 66.488) scale(0.75) translate(-279.77469 65.952)"/>
        <path id="path1810" style="font-style:normal;font-weight:500;font-size:72px;line-height:1;font-family:'Raleway Medium Alt1';font-variant-ligatures:none;text-align:center;text-anchor:middle" d="m 333.97156,0 h 6.48 v -28.728 l -6.48,-8.424 z m 36.72,-51.048 v 39.744 l -31.68,-39.816 h -5.04 v 3.888 l 6.48,8.208 31.248,39.024 h 5.472 v -51.048 z" stroke-width="0" stroke-linejoin="miter" stroke-miterlimit="2" fill="#47626b" stroke="#47626b" transform="translate(0 274.90123825) translate(376.97342000000003 77.612) scale(0.75) translate(-333.97156 51.12)"/>
        <path id="path1812" style="font-style:normal;font-weight:500;font-size:72px;line-height:1;font-family:'Raleway Medium Alt1';font-variant-ligatures:none;text-align:center;text-anchor:middle" d="m 389.37781,0 h 6.48 v -51.12 h -6.48 z" stroke-width="0" stroke-linejoin="miter" stroke-miterlimit="2" fill="#48666e" stroke="#48666e" transform="translate(0 274.90123825) translate(418.52810750000003 77.612) scale(0.75) translate(-389.37781 51.12)"/>
        <path id="path1814" style="font-style:normal;font-weight:500;font-size:72px;line-height:1;font-family:'Raleway Medium Alt1';font-variant-ligatures:none;text-align:center;text-anchor:middle" d="m 412.40094,-32.76 c 0.72,-2.376 1.872,-4.536 3.384,-6.408 1.44,-1.872 3.312,-3.456 5.472,-4.608 2.16,-1.152 4.68,-1.8 7.56,-1.8 1.296,0 2.592,0.144 3.96,0.432 1.296,0.288 2.592,0.792 3.888,1.44 1.224,0.72 2.448,1.584 3.528,2.664 1.08,1.152 2.016,2.52 2.808,4.104 l 5.112,-3.312 c -1.584,-3.312 -4.032,-5.976 -7.272,-8.064 -3.312,-2.016 -7.2,-3.096 -11.736,-3.096 -3.888,0 -7.272,0.792 -10.296,2.232 -3.096,1.512 -5.616,3.456 -7.704,5.904 -2.088,2.448 -3.672,5.184 -4.752,8.208 -0.792,2.16 -1.224,4.32 -1.44,6.408 h 6.552 c 0.216,-1.368 0.504,-2.736 0.936,-4.104 z m 31.248,18.36 c -0.72,1.584 -1.656,2.952 -2.808,4.104 -1.152,1.152 -2.376,2.088 -3.6,2.808 -1.368,0.72 -2.664,1.296 -4.104,1.584 -1.44,0.36 -2.808,0.504 -4.104,0.504 -2.592,0 -4.896,-0.504 -7.056,-1.656 -2.16,-1.08 -4.032,-2.592 -5.616,-4.464 -1.656,-1.872 -2.88,-3.96 -3.744,-6.408 -0.576,-1.512 -0.936,-3.024 -1.152,-4.68 h -6.552 c 0.288,2.16 0.792,4.248 1.584,6.336 1.152,3.168 2.808,5.976 4.968,8.424 2.16,2.448 4.68,4.464 7.632,5.976 2.88,1.584 6.12,2.304 9.648,2.304 1.944,0 3.96,-0.216 6.048,-0.792 2.016,-0.504 3.96,-1.224 5.832,-2.304 1.872,-0.936 3.528,-2.232 4.968,-3.672 1.44,-1.44 2.592,-3.168 3.456,-5.112 z" stroke-width="0" stroke-linejoin="miter" stroke-miterlimit="2" fill="#4a6a72" stroke="#4a6a72" transform="translate(0 274.90123825) translate(430.179455 77.396) scale(0.75) translate(-404.91294 51.408)"/>
        <path id="path1816" style="font-style:normal;font-weight:500;font-size:72px;line-height:1;font-family:'Raleway Medium Alt1';font-variant-ligatures:none;text-align:center;text-anchor:middle" d="m 480.28794,-44.136 -2.808,7.632 6.48,16.488 h -12.816 l -1.944,5.04 h 16.2 L 491.44794,0 h 6.912 z m -2.808,-6.984 h -5.472 L 451.05594,0 h 6.624 l 17.064,-43.632 z" stroke-width="0" stroke-linejoin="miter" stroke-miterlimit="2" fill="#4b6e75" stroke="#4b6e75" transform="translate(0 274.90123825) translate(464.78670500000004 77.612) scale(0.75) translate(-451.05594 51.12)"/>
        <path id="path1818" style="font-style:normal;font-weight:500;font-size:72px;line-height:1;font-family:'Raleway Medium Alt1';font-variant-ligatures:none;text-align:center;text-anchor:middle" d="m 531.91869,0 h 6.48 v -38.88 h -6.48 z m -17.64,-51.12 v 5.76 h 41.76 v -5.76 z" stroke-width="0" stroke-linejoin="miter" stroke-miterlimit="2" fill="#4c7178" stroke="#4c7178" transform="translate(0 274.90123825) translate(512.2037675 77.612) scale(0.75) translate(-514.27869 51.12)"/>
        <path id="path1820" style="font-style:normal;font-weight:500;font-size:72px;line-height:1;font-family:'Raleway Medium Alt1';font-variant-ligatures:none;text-align:center;text-anchor:middle" d="m 599.87206,-22.752 c -0.216,1.512 -0.504,3.024 -1.008,4.464 -0.792,2.448 -1.944,4.608 -3.456,6.48 -1.512,1.872 -3.384,3.456 -5.472,4.608 -2.232,1.152 -4.68,1.728 -7.344,1.728 -2.664,0 -5.04,-0.504 -7.2,-1.656 -2.16,-1.08 -4.032,-2.592 -5.544,-4.464 -1.584,-1.872 -2.736,-3.96 -3.6,-6.408 -0.504,-1.512 -0.864,-3.096 -1.08,-4.752 h -6.552 c 0.216,2.304 0.72,4.608 1.584,6.768 1.08,3.168 2.736,5.904 4.896,8.352 2.088,2.448 4.608,4.392 7.56,5.832 2.952,1.44 6.264,2.16 9.864,2.16 3.456,0 6.624,-0.648 9.576,-2.088 2.952,-1.44 5.472,-3.312 7.632,-5.688 2.16,-2.376 3.816,-5.112 5.04,-8.28 0.864,-2.232 1.44,-4.608 1.728,-7.056 z m -33.624,-10.152 c 0.792,-2.376 1.944,-4.464 3.456,-6.408 1.512,-1.872 3.384,-3.384 5.544,-4.536 2.16,-1.152 4.608,-1.728 7.344,-1.728 2.52,0 4.896,0.576 7.056,1.656 2.16,1.152 3.96,2.592 5.544,4.464 1.584,1.872 2.736,3.96 3.6,6.408 0.432,1.296 0.792,2.664 1.008,3.96 h 6.552 c -0.288,-1.944 -0.792,-3.96 -1.44,-5.832 -1.152,-3.096 -2.808,-5.832 -4.896,-8.352 -2.16,-2.448 -4.68,-4.392 -7.56,-5.904 -2.952,-1.512 -6.264,-2.304 -9.792,-2.304 -3.528,0 -6.696,0.72 -9.648,2.16 -2.952,1.44 -5.472,3.312 -7.632,5.688 -2.16,2.448 -3.888,5.184 -5.112,8.28 -0.792,2.088 -1.368,4.176 -1.584,6.264 h 6.552 c 0.216,-1.224 0.576,-2.52 1.008,-3.816 z" stroke-width="0" stroke-linejoin="miter" stroke-miterlimit="2" fill="#4d757b" stroke="#4d757b" transform="translate(0 274.90123825) translate(545.456795 77.342) scale(0.75) translate(-558.61606 51.48)"/>
        <path id="path1822" style="font-style:normal;font-weight:500;font-size:72px;line-height:1;font-family:'Raleway Medium Alt1';font-variant-ligatures:none;text-align:center;text-anchor:middle" d="m 626.84056,0 h 6.48 v -38.88 h -6.48 z m -17.64,-51.12 v 5.76 h 41.76 v -5.76 z" stroke-width="0" stroke-linejoin="miter" stroke-miterlimit="2" fill="#4f797f" stroke="#4f797f" transform="translate(0 274.90123825) translate(583.39517 77.612) scale(0.75) translate(-609.20056 51.12)"/>
        <path id="path1824" style="font-style:normal;font-weight:500;font-size:72px;line-height:1;font-family:'Raleway Medium Alt1';font-variant-ligatures:none;text-align:center;text-anchor:middle" d="m 677.30356,-44.136 -2.808,7.632 6.48,16.488 h -12.816 l -1.944,5.04 h 16.2 L 688.46356,0 h 6.912 z m -2.808,-6.984 h -5.472 L 648.07156,0 h 6.624 l 17.064,-43.632 z" stroke-width="0" stroke-linejoin="miter" stroke-miterlimit="2" fill="#507d82" stroke="#507d82" transform="translate(0 274.90123825) translate(612.5484200000001 77.612) scale(0.75) translate(-648.07156 51.12)"/>
        <path id="path1826" style="font-style:normal;font-weight:500;font-size:72px;line-height:1;font-family:'Raleway Medium Alt1';font-variant-ligatures:none;text-align:center;text-anchor:middle" d="M 702.26844,-5.76 V 0 h 34.992 v -5.76 z m 6.48,-45.36 h -6.48 v 38.88 h 6.48 z" stroke-width="0" stroke-linejoin="miter" stroke-miterlimit="2" fill="#518185" stroke="#518185" transform="translate(0 274.90123825) translate(653.1960800000002 77.612) scale(0.75) translate(-702.26844 51.12)"/>
        <path id="path1828" style="font-style:normal;font-weight:500;font-size:72px;line-height:1;font-family:'Raleway Medium Alt1';font-variant-ligatures:none;text-align:center;text-anchor:middle" d="m 764.80719,-32.76 c 0.72,-2.376 1.872,-4.536 3.384,-6.408 1.44,-1.872 3.312,-3.456 5.472,-4.608 2.16,-1.152 4.68,-1.8 7.56,-1.8 1.296,0 2.592,0.144 3.96,0.432 1.296,0.288 2.592,0.792 3.888,1.44 1.224,0.72 2.448,1.584 3.528,2.664 1.08,1.152 2.016,2.52 2.808,4.104 l 5.112,-3.312 c -1.584,-3.312 -4.032,-5.976 -7.272,-8.064 -3.312,-2.016 -7.2,-3.096 -11.736,-3.096 -3.888,0 -7.272,0.792 -10.296,2.232 -3.096,1.512 -5.616,3.456 -7.704,5.904 -2.088,2.448 -3.672,5.184 -4.752,8.208 -0.792,2.16 -1.224,4.32 -1.44,6.408 h 6.552 c 0.216,-1.368 0.504,-2.736 0.936,-4.104 z m 31.248,18.36 c -0.72,1.584 -1.656,2.952 -2.808,4.104 -1.152,1.152 -2.376,2.088 -3.6,2.808 -1.368,0.72 -2.664,1.296 -4.104,1.584 -1.44,0.36 -2.808,0.504 -4.104,0.504 -2.592,0 -4.896,-0.504 -7.056,-1.656 -2.16,-1.08 -4.032,-2.592 -5.616,-4.464 -1.656,-1.872 -2.88,-3.96 -3.744,-6.408 -0.576,-1.512 -0.936,-3.024 -1.152,-4.68 h -6.552 c 0.288,2.16 0.792,4.248 1.584,6.336 1.152,3.168 2.808,5.976 4.968,8.424 2.16,2.448 4.68,4.464 7.632,5.976 2.88,1.584 6.12,2.304 9.648,2.304 1.944,0 3.96,-0.216 6.048,-0.792 2.016,-0.504 3.96,-1.224 5.832,-2.304 1.872,-0.936 3.528,-2.232 4.968,-3.672 1.44,-1.44 2.592,-3.168 3.456,-5.112 z" stroke-width="0" stroke-linejoin="miter" stroke-miterlimit="2" fill="#528588" stroke="#528588" transform="translate(0 274.90123825) translate(694.4841425000002 77.396) scale(0.75) translate(-757.31919 51.408)"/>
        <path id="path1830" style="font-style:normal;font-weight:500;font-size:72px;line-height:1;font-family:'Raleway Medium Alt1';font-variant-ligatures:none;text-align:center;text-anchor:middle" d="m 832.69419,-44.136 -2.808,7.632 6.48,16.488 h -12.816 l -1.944,5.04 h 16.2 L 843.85419,0 h 6.912 z m -2.808,-6.984 h -5.472 L 803.46219,0 h 6.624 l 17.064,-43.632 z" stroke-width="0" stroke-linejoin="miter" stroke-miterlimit="2" fill="#54898c" stroke="#54898c" transform="translate(0 274.90123825) translate(729.0913925000001 77.612) scale(0.75) translate(-803.46219 51.12)"/>
        <path id="path1832" style="font-style:normal;font-weight:500;font-size:72px;line-height:1;font-family:'Raleway Medium Alt1';font-variant-ligatures:none;text-align:center;text-anchor:middle" d="m 884.29906,-19.584 c 1.584,-0.36 3.096,-1.08 4.392,-2.088 1.296,-0.936 2.448,-2.088 3.384,-3.456 0.936,-1.296 1.656,-2.808 2.16,-4.464 0.504,-1.656 0.792,-3.384 0.792,-5.184 0,-2.016 -0.432,-3.96 -1.152,-5.904 -0.792,-1.944 -1.872,-3.672 -3.24,-5.256 -1.368,-1.584 -3.024,-2.808 -4.896,-3.744 -1.872,-0.936 -3.96,-1.44 -6.192,-1.44 h -21.888 V 0 h 6.48 v -18.36 h 6.48 l -3.6,-5.76 h -2.88 v -21.24 h 15.048 c 1.224,0 2.376,0.288 3.528,0.864 1.152,0.576 2.088,1.296 2.952,2.304 0.864,1.008 1.512,2.088 2.016,3.384 0.504,1.296 0.792,2.664 0.792,4.032 0,1.44 -0.216,2.736 -0.648,4.032 -0.504,1.368 -1.08,2.448 -1.8,3.456 -0.792,1.008 -1.728,1.8 -2.808,2.304 -1.08,0.576 -2.304,0.864 -3.6,0.864 h -5.688 l 3.744,5.76 11.664,18.36 h 7.344 z" stroke-width="0" stroke-linejoin="miter" stroke-miterlimit="2" fill="#558d8f" stroke="#558d8f" transform="translate(0 274.90123825) translate(769.739045 77.612) scale(0.75) translate(-857.65906 51.12)"/>
      </g>
      <image id="icon" x="0" y="0" style="display: none;" xlink:href=""/>
    </g>
  </g></g></svg>